<!-- icon666.com - MILLIONS vector ICONS FREE --><svg id="Capa_1" enable-background="new 0 0 512 512" viewBox="0 0 512 512" xmlns="http://www.w3.org/2000/svg"><g><g><g><path d="m328 420h-144c-5.523 0-10-4.477-10-10v-154h164v154c0 5.523-4.477 10-10 10z" fill="#7dd9c2"></path></g><g><path d="m164 420h-144c-5.523 0-10-4.477-10-10v-144c0-5.523 4.477-10 10-10h154v154c0 5.523-4.477 10-10 10z" fill="#de5d7b"></path></g><g><path d="m338 256h-164v-154c0-5.523 4.477-10 10-10h144c5.523 0 10 4.477 10 10z" fill="#a277ce"></path></g><g><path d="m492 420h-144c-5.523 0-10-4.477-10-10v-154h154c5.523 0 10 4.477 10 10v144c0 5.523-4.477 10-10 10z" fill="#f1cb6f"></path></g></g><g><path d="m492 246h-144v-144c0-11.028-8.972-20-20-20h-144c-11.028 0-20 8.972-20 20v144h-144c-11.028 0-20 8.972-20 20v144c0 11.028 8.972 20 20 20h144c3.645 0 7.054-.996 10-2.706 2.946 1.71 6.355 2.706 10 2.706h144c3.645 0 7.054-.996 10-2.706 2.946 1.71 6.355 2.706 10 2.706h27.001c5.522 0 10-4.478 10-10s-4.478-10-10-10h-27.001v-144h144v144h-27.001c-5.522 0-10 4.478-10 10s4.478 10 10 10h27.001c11.028 0 20-8.972 20-20v-144c0-11.028-8.972-20-20-20zm-308-144h144v144h-144zm-164 308v-144h144v144zm164 0v-144h144v144z"></path><circle cx="420" cy="420" r="10"></circle><path d="m103.114 296.79c-.035-.092-.071-.184-.109-.275-1.821-4.425-6.088-7.282-10.872-7.282-.004 0-.008 0-.012 0-4.789.005-9.055 2.871-10.87 7.304-.031.076-.061.152-.09.228l-29.114 76.443c-1.966 5.161.625 10.939 5.786 12.904 1.171.446 2.374.658 3.557.658 4.03 0 7.828-2.454 9.347-6.443l4.798-12.598h32.973l4.743 12.569c1.95 5.167 7.719 7.776 12.887 5.824 5.167-1.949 7.775-7.719 5.825-12.887zm-19.961 50.939 8.945-23.486 8.863 23.486z"></path><path d="m415.463 290.379h-21.311c-2.655 0-5.202 1.057-7.078 2.936-1.876 1.88-2.927 4.428-2.922 7.083.018 9.768.091 66.268.152 75.26.01 2.652 1.072 5.192 2.955 7.061 1.874 1.86 4.406 2.903 7.045 2.903h.038c.643-.003 15.844-.061 21.918-.168 22.938-.4 39.587-20.358 39.587-47.453.001-28.484-16.229-47.622-40.384-47.622zm.448 75.078c-2.686.047-7.336.085-11.64.112-.028-8.876-.085-45.968-.102-55.19h11.293c18.915 0 20.385 21.142 20.385 27.621.001 13.493-6.164 27.216-19.936 27.457z"></path><path d="m268.038 329.229c-9.472-3.494-18.293-7.298-21.056-8.506-1.956-1.599-1.888-3.811-1.755-4.737.188-1.31 1.145-4.513 5.951-5.961 10.759-3.247 20.763 4.645 21.054 4.877 4.225 3.504 10.497 2.944 14.035-1.265 3.554-4.228 3.008-10.535-1.22-14.089-.737-.621-18.302-15.105-39.638-8.674-10.82 3.26-18.476 11.793-19.979 22.27-1.412 9.838 2.852 19.301 11.129 24.697.442.288.906.541 1.388.756.449.2 11.135 4.956 23.169 9.396 2.596.958 10.985 4.523 9.97 10.213-.752 4.208-5.91 8.562-13.242 8.562-7.621 0-14.951-3.068-19.608-8.208-3.71-4.094-10.033-4.402-14.126-.695-4.092 3.709-4.403 10.033-.695 14.125 8.511 9.392 21.06 14.778 34.429 14.778 16.49 0 30.339-10.533 32.931-25.047 1.952-10.933-2.997-25.21-22.737-32.492z"></path><path d="m299.952 125.567c-5.418-1.078-10.682 2.439-11.76 7.855l-8.747 43.949-13.889-45.084c-1.626-5.277-7.221-8.235-12.501-6.612-3.576 1.102-6.081 4.027-6.824 7.44l-13.701 44.264-8.721-44.088c-1.072-5.417-6.333-8.944-11.751-7.869-5.418 1.071-8.941 6.332-7.87 11.75l15.107 76.371c.095.479.224.949.388 1.408 1.664 4.684 6.106 7.815 11.071 7.815h.081c4.997-.034 9.435-3.235 11.044-7.966.03-.088.058-.176.085-.264l14.034-45.342 13.971 45.352c.042.136.087.271.134.404 1.665 4.684 6.106 7.815 11.071 7.815h.08c4.997-.034 9.436-3.235 11.044-7.966.142-.415.255-.839.341-1.269l15.167-76.206c1.08-5.414-2.438-10.678-7.854-11.757z"></path></g></g></svg>